<svg width="21" height="21" viewBox="0 0 21 21" fill="none" xmlns="http://www.w3.org/2000/svg">
<path d="M10.5 14C12.433 14 14 12.433 14 10.5C14 8.56701 12.433 7 10.5 7C8.567 7 7 8.56701 7 10.5C7 12.433 8.567 14 10.5 14Z" fill="#404040"/>
<path fill-rule="evenodd" clip-rule="evenodd" d="M0 6.3C0 2.8206 2.8206 0 6.3 0H14.7C18.1794 0 21 2.8206 21 6.3V14.7C21 18.1794 18.1794 21 14.7 21H6.3C2.8206 21 0 18.1794 0 14.7V6.3ZM16.8 5.6C17.5732 5.6 18.2 4.9732 18.2 4.2C18.2 3.4268 17.5732 2.8 16.8 2.8C16.0268 2.8 15.4 3.4268 15.4 4.2C15.4 4.9732 16.0268 5.6 16.8 5.6ZM10.5 16.1C13.5928 16.1 16.1 13.5928 16.1 10.5C16.1 7.4072 13.5928 4.9 10.5 4.9C7.40721 4.9 4.9 7.4072 4.9 10.5C4.9 13.5928 7.40721 16.1 10.5 16.1Z" fill="#404040"/>
</svg>
