<svg width="177" height="48" viewBox="0 0 177 48" fill="none" xmlns="http://www.w3.org/2000/svg">
<path d="M6.49667 47.9999H5.63518L5.5039 47.0387H1.1062V41.6126H2.32049V46.031H4.48652V41.6126H5.70081V46.031H6.49667V47.9999Z" fill="#404040"/>
<path d="M9.15671 41.6126H12.857V42.6203H10.371V43.7985H12.6273V44.8062H10.371V46.031H12.898V47.0387H9.15671V41.6126Z" fill="#404040"/>
<path d="M19.2846 44.7985H16.9873V47.0387H15.773V41.6126H16.9873V43.7908H19.2846V41.6126H20.4989V47.0387H19.2846V44.7985Z" fill="#404040"/>
<path d="M27.9574 42.6203H26.1359V47.0387H24.9217V42.6203H23.1002V41.6126H27.9574V42.6203Z" fill="#404040"/>
<path d="M30.56 41.6669C30.8061 41.6255 31.0796 41.5945 31.3805 41.5739C31.6813 41.548 31.9821 41.5351 32.283 41.5351C32.5893 41.5351 32.8983 41.5584 33.2101 41.6049C33.5219 41.6462 33.8008 41.7341 34.047 41.8684C34.2986 41.9976 34.5037 42.1811 34.6623 42.4188C34.8209 42.6513 34.9003 42.9614 34.9003 43.349C34.9003 43.69 34.8319 43.982 34.6951 44.2249C34.5584 44.4626 34.3752 44.6564 34.1454 44.8062C33.9212 44.9561 33.6641 45.0672 33.3742 45.1395C33.0843 45.2067 32.7862 45.2403 32.4799 45.2403C32.4525 45.2403 32.406 45.2403 32.3404 45.2403C32.2748 45.2403 32.2037 45.2403 32.1271 45.2403C32.056 45.2352 31.9876 45.23 31.922 45.2248C31.8563 45.2196 31.8071 45.2145 31.7743 45.2093V47.0387H30.56V41.6669ZM32.365 42.5428C32.2502 42.5428 32.138 42.5454 32.0286 42.5505C31.9247 42.5557 31.8399 42.5661 31.7743 42.5816V44.1939C31.7962 44.199 31.8317 44.2042 31.8809 44.2094C31.9302 44.2145 31.9821 44.2197 32.0368 44.2249C32.0915 44.2249 32.1408 44.2275 32.1845 44.2326C32.2337 44.2326 32.272 44.2326 32.2994 44.2326C32.458 44.2326 32.6166 44.2223 32.7752 44.2016C32.9339 44.1809 33.0733 44.137 33.1937 44.0698C33.3195 44.0027 33.4207 43.9122 33.4973 43.7985C33.5738 43.6797 33.6121 43.5221 33.6121 43.3257C33.6121 43.1603 33.5766 43.0286 33.5055 42.9304C33.4344 42.827 33.3386 42.7469 33.2183 42.6901C33.1034 42.6332 32.9694 42.5945 32.8163 42.5738C32.6686 42.5531 32.5182 42.5428 32.365 42.5428Z" fill="#404040"/>
<path d="M46.8454 47.9999H45.9839L45.8526 47.0387H41.8323L41.701 47.9999H40.8395V46.031H41.5041C41.5479 45.9741 41.6162 45.8501 41.7092 45.6589C41.8022 45.4677 41.8952 45.1938 41.9882 44.8372C42.0812 44.4807 42.1605 44.0388 42.2261 43.5117C42.2972 42.9795 42.3273 42.3464 42.3164 41.6126H46.0577V46.031H46.8454V47.9999ZM44.8434 46.031V42.6203H43.4486C43.4158 43.5092 43.331 44.2378 43.1943 44.8062C43.063 45.3747 42.929 45.7829 42.7922 46.031H44.8434Z" fill="#404040"/>
<path d="M49.5035 41.6126H53.2038V42.6203H50.7178V43.7985H52.974V44.8062H50.7178V46.031H53.2448V47.0387H49.5035V41.6126Z" fill="#404040"/>
<path d="M59.3852 42.6203H58.0643C58.0369 43.1112 58.0068 43.5557 57.974 43.9536C57.9467 44.3463 57.9057 44.7003 57.851 45.0155C57.8017 45.3308 57.7334 45.6124 57.6458 45.8604C57.5583 46.1033 57.4489 46.3178 57.3176 46.5038C57.2301 46.6227 57.1317 46.7209 57.0223 46.7984C56.9184 46.8759 56.809 46.9379 56.6941 46.9844C56.5792 47.0257 56.4671 47.0542 56.3577 47.0697C56.2483 47.0903 56.1471 47.1007 56.0541 47.1007C55.9119 47.1007 55.7998 47.0903 55.7177 47.0697C55.6412 47.049 55.5564 47.018 55.4634 46.9767L55.5947 46.0155C55.6548 46.0361 55.7259 46.0465 55.808 46.0465C55.901 46.0465 55.994 46.0258 56.0869 45.9845C56.1799 45.9431 56.262 45.8759 56.3331 45.7829C56.4206 45.6692 56.4972 45.5065 56.5628 45.2946C56.6339 45.0827 56.6914 44.8088 56.7351 44.4729C56.7843 44.1319 56.8226 43.7262 56.85 43.2559C56.8828 42.7857 56.9047 42.2379 56.9156 41.6126H60.5995V47.0387H59.3852V42.6203Z" fill="#404040"/>
<path d="M63.4283 44.3256C63.4283 43.8812 63.4885 43.4833 63.6088 43.1319C63.7292 42.7805 63.9015 42.486 64.1257 42.2482C64.3555 42.0054 64.6344 41.8219 64.9626 41.6979C65.2908 41.5687 65.6627 41.5041 66.0784 41.5041C66.5215 41.5041 66.9071 41.5739 67.2353 41.7134C67.5689 41.8477 67.8452 42.0389 68.064 42.287C68.2882 42.535 68.455 42.8322 68.5644 43.1784C68.6793 43.5247 68.7367 43.9071 68.7367 44.3256C68.7367 44.7701 68.6738 45.168 68.548 45.5194C68.4277 45.8708 68.2527 46.1679 68.0229 46.4108C67.7932 46.6485 67.5143 46.832 67.1861 46.9612C66.8579 47.0852 66.4887 47.1472 66.0784 47.1472C65.6354 47.1472 65.247 47.08 64.9134 46.9456C64.5852 46.8061 64.309 46.6123 64.0847 46.3643C63.8659 46.1162 63.7018 45.8191 63.5924 45.4729C63.483 45.1266 63.4283 44.7442 63.4283 44.3256ZM64.7165 44.3256C64.7165 44.5944 64.7438 44.8398 64.7985 45.062C64.8532 45.2842 64.9353 45.4754 65.0446 45.6356C65.154 45.7958 65.2935 45.9199 65.4631 46.0077C65.6381 46.0956 65.8432 46.1395 66.0784 46.1395C66.5106 46.1395 66.8469 46 67.0876 45.7209C67.3283 45.4419 67.4486 44.9768 67.4486 44.3256C67.4486 44.0673 67.424 43.827 67.3748 43.6048C67.3255 43.3825 67.2435 43.1913 67.1286 43.0311C67.0192 42.8658 66.877 42.7392 66.702 42.6513C66.5324 42.5583 66.3246 42.5118 66.0784 42.5118C65.6518 42.5118 65.3181 42.6565 65.0775 42.9459C64.8368 43.2353 64.7165 43.6952 64.7165 44.3256Z" fill="#404040"/>
<path d="M75.7646 42.8916C75.7646 43.026 75.7427 43.1603 75.6989 43.2947C75.6606 43.4239 75.5977 43.5453 75.5102 43.659C75.4227 43.7727 75.3078 43.8709 75.1656 43.9536C75.0234 44.0363 74.8511 44.0957 74.6487 44.1319V44.1784C74.8292 44.1939 74.9988 44.2326 75.1574 44.2946C75.316 44.3566 75.4528 44.4445 75.5676 44.5582C75.688 44.6667 75.781 44.8011 75.8466 44.9613C75.9177 45.1163 75.9533 45.2997 75.9533 45.5116C75.9533 45.7958 75.8822 46.0387 75.7399 46.2403C75.6032 46.4418 75.4227 46.6072 75.1984 46.7364C74.9742 46.8656 74.7171 46.9612 74.4272 47.0232C74.1373 47.0852 73.8419 47.1162 73.5411 47.1162C73.4426 47.1162 73.3114 47.1162 73.1473 47.1162C72.9886 47.1162 72.8163 47.111 72.6304 47.1007C72.4499 47.0955 72.2639 47.0852 72.0725 47.0697C71.8865 47.0542 71.7169 47.0309 71.5638 46.9999V41.6514C71.6786 41.6359 71.8072 41.6204 71.9494 41.6049C72.0971 41.5894 72.253 41.5764 72.4171 41.5661C72.5866 41.5558 72.7589 41.548 72.9339 41.5429C73.109 41.5377 73.284 41.5351 73.459 41.5351C73.7435 41.5351 74.0224 41.5558 74.2959 41.5971C74.5694 41.6333 74.8156 41.7031 75.0343 41.8064C75.2531 41.9046 75.4282 42.0415 75.5594 42.2172C75.6962 42.3929 75.7646 42.6177 75.7646 42.8916ZM73.5247 46.186C73.6778 46.186 73.8228 46.1731 73.9595 46.1472C74.1017 46.1214 74.2248 46.0801 74.3287 46.0232C74.4381 45.9612 74.5229 45.8863 74.5831 45.7984C74.6487 45.7054 74.6815 45.5917 74.6815 45.4574C74.6815 45.292 74.6432 45.1602 74.5667 45.062C74.4901 44.9638 74.3889 44.8915 74.2631 44.845C74.1428 44.7933 74.006 44.7623 73.8529 44.752C73.7052 44.7365 73.5548 44.7287 73.4016 44.7287H72.7288V46.1395C72.7617 46.1498 72.8081 46.1576 72.8683 46.1627C72.9339 46.1679 73.0051 46.1731 73.0816 46.1783C73.1582 46.1783 73.2348 46.1808 73.3114 46.186C73.3934 46.186 73.4645 46.186 73.5247 46.186ZM73.1391 43.8761C73.2211 43.8761 73.3168 43.8761 73.4262 43.8761C73.5411 43.8709 73.6368 43.8631 73.7134 43.8528C73.9431 43.7856 74.1373 43.6952 74.2959 43.5815C74.4545 43.4626 74.5339 43.3024 74.5339 43.1009C74.5339 42.9665 74.5038 42.858 74.4436 42.7753C74.3834 42.6927 74.3014 42.6281 74.1975 42.5816C74.099 42.535 73.9869 42.504 73.8611 42.4885C73.7353 42.473 73.6067 42.4653 73.4755 42.4653C73.3168 42.4653 73.1719 42.4679 73.0406 42.473C72.9093 42.4782 72.8054 42.486 72.7288 42.4963V43.8761H73.1391Z" fill="#404040"/>
<path d="M78.5839 44.3256C78.5839 43.8812 78.6441 43.4833 78.7644 43.1319C78.8847 42.7805 79.057 42.486 79.2813 42.2482C79.511 42.0054 79.79 41.8219 80.1182 41.6979C80.4463 41.5687 80.8183 41.5041 81.234 41.5041C81.677 41.5041 82.0627 41.5739 82.3908 41.7134C82.7245 41.8477 83.0007 42.0389 83.2195 42.287C83.4438 42.535 83.6106 42.8322 83.72 43.1784C83.8349 43.5247 83.8923 43.9071 83.8923 44.3256C83.8923 44.7701 83.8294 45.168 83.7036 45.5194C83.5833 45.8708 83.4082 46.1679 83.1785 46.4108C82.9488 46.6485 82.6698 46.832 82.3416 46.9612C82.0134 47.0852 81.6442 47.1472 81.234 47.1472C80.7909 47.1472 80.4026 47.08 80.0689 46.9456C79.7407 46.8061 79.4645 46.6123 79.2403 46.3643C79.0215 46.1162 78.8574 45.8191 78.748 45.4729C78.6386 45.1266 78.5839 44.7442 78.5839 44.3256ZM79.872 44.3256C79.872 44.5944 79.8994 44.8398 79.9541 45.062C80.0088 45.2842 80.0908 45.4754 80.2002 45.6356C80.3096 45.7958 80.4491 45.9199 80.6186 46.0077C80.7937 46.0956 80.9988 46.1395 81.234 46.1395C81.6661 46.1395 82.0025 46 82.2432 45.7209C82.4838 45.4419 82.6042 44.9768 82.6042 44.3256C82.6042 44.0673 82.5796 43.827 82.5303 43.6048C82.4811 43.3825 82.3991 43.1913 82.2842 43.0311C82.1748 42.8658 82.0326 42.7392 81.8575 42.6513C81.688 42.5583 81.4801 42.5118 81.234 42.5118C80.8074 42.5118 80.4737 42.6565 80.233 42.9459C79.9923 43.2353 79.872 43.6952 79.872 44.3256Z" fill="#404040"/>
<path d="M90.3704 44.0466L90.436 43.3567H90.395L89.9766 44.0543L87.6218 47.0387H86.7193V41.6126H87.9336V44.5349L87.8516 45.2558H87.9008L88.3438 44.5349L90.674 41.6126H91.5847V47.0387H90.3704V44.0466ZM88.5982 40.2561C88.6255 40.4163 88.6966 40.53 88.8115 40.5972C88.9264 40.6643 89.0768 40.6979 89.2628 40.6979C89.6566 40.6979 89.8781 40.5532 89.9273 40.2639L90.9201 40.3956C90.8545 40.7315 90.6822 40.9744 90.4032 41.1243C90.1243 41.269 89.7414 41.3413 89.2546 41.3413C89.0139 41.3413 88.7924 41.3284 88.59 41.3026C88.3876 41.2716 88.2098 41.2199 88.0567 41.1475C87.9035 41.0752 87.7777 40.9822 87.6793 40.8685C87.5863 40.7496 87.5261 40.5998 87.4988 40.4189L88.5982 40.2561Z" fill="#404040"/>
<path d="M102.505 44.0466L102.571 43.3567H102.53L102.111 44.0543L99.7567 47.0387H98.8542V41.6126H100.069V44.5349L99.9865 45.2558H100.036L100.479 44.5349L102.809 41.6126H103.72V47.0387H102.505V44.0466Z" fill="#404040"/>
<path d="M110.264 44.7985H107.967V47.0387H106.752V41.6126H107.967V43.7908H110.264V41.6126H111.478V47.0387H110.264V44.7985Z" fill="#404040"/>
<path d="M116.951 46.4496C116.836 46.4651 116.722 46.4754 116.607 46.4806C116.492 46.4857 116.366 46.4883 116.229 46.4883C115.95 46.4883 115.688 46.4444 115.442 46.3565C115.196 46.2687 114.979 46.1343 114.794 45.9535C114.613 45.7726 114.468 45.5478 114.359 45.2791C114.255 45.0104 114.203 44.6925 114.203 44.3256C114.203 43.9794 114.255 43.6668 114.359 43.3877C114.468 43.1087 114.618 42.8735 114.81 42.6823C115.001 42.486 115.231 42.3361 115.499 42.2327C115.773 42.1294 116.071 42.0777 116.393 42.0777C116.47 42.0777 116.563 42.0803 116.672 42.0855C116.787 42.0906 116.88 42.101 116.951 42.1165V41.4576H118.157V42.1397C118.267 42.1139 118.393 42.0984 118.535 42.0932C118.677 42.0829 118.795 42.0777 118.888 42.0777C119.172 42.0777 119.437 42.1242 119.683 42.2172C119.93 42.3103 120.143 42.4498 120.323 42.6358C120.504 42.8167 120.646 43.0415 120.75 43.3102C120.854 43.5789 120.906 43.8916 120.906 44.2481C120.906 44.6099 120.849 44.9303 120.734 45.2093C120.619 45.4884 120.463 45.7235 120.266 45.9147C120.069 46.1007 119.839 46.2428 119.577 46.341C119.32 46.4392 119.046 46.4883 118.756 46.4883C118.658 46.4883 118.551 46.4857 118.436 46.4806C118.327 46.4702 118.234 46.4547 118.157 46.4341V47.1937H116.951V46.4496ZM118.6 42.9846C118.54 42.9846 118.458 42.9872 118.354 42.9924C118.256 42.9976 118.174 43.0079 118.108 43.0234V45.5659C118.157 45.5762 118.218 45.5814 118.289 45.5814C118.36 45.5814 118.434 45.5814 118.51 45.5814C118.669 45.5814 118.819 45.5555 118.961 45.5039C119.104 45.4522 119.227 45.3747 119.331 45.2713C119.44 45.1628 119.525 45.0259 119.585 44.8605C119.645 44.69 119.675 44.4884 119.675 44.2559C119.675 43.8528 119.577 43.5402 119.38 43.3179C119.188 43.0957 118.929 42.9846 118.6 42.9846ZM116.541 45.5814C116.59 45.5814 116.661 45.5814 116.754 45.5814C116.847 45.5762 116.929 45.5633 117.001 45.5426V43.0079C116.875 42.9924 116.735 42.9846 116.582 42.9846C116.424 42.9846 116.273 43.0105 116.131 43.0621C115.994 43.1138 115.874 43.1939 115.77 43.3024C115.666 43.411 115.584 43.5505 115.524 43.721C115.464 43.8864 115.433 44.0853 115.433 44.3179C115.433 44.7261 115.535 45.0388 115.737 45.2558C115.945 45.4729 116.213 45.5814 116.541 45.5814Z" fill="#404040"/>
<path d="M123.426 44.3256C123.426 43.8812 123.486 43.4833 123.606 43.1319C123.726 42.7805 123.899 42.486 124.123 42.2482C124.353 42.0054 124.632 41.8219 124.96 41.6979C125.288 41.5687 125.66 41.5041 126.076 41.5041C126.519 41.5041 126.904 41.5739 127.233 41.7134C127.566 41.8477 127.842 42.0389 128.061 42.287C128.285 42.535 128.452 42.8322 128.562 43.1784C128.677 43.5247 128.734 43.9071 128.734 44.3256C128.734 44.7701 128.671 45.168 128.545 45.5194C128.425 45.8708 128.25 46.1679 128.02 46.4108C127.79 46.6485 127.512 46.832 127.183 46.9612C126.855 47.0852 126.486 47.1472 126.076 47.1472C125.633 47.1472 125.244 47.08 124.911 46.9456C124.582 46.8061 124.306 46.6123 124.082 46.3643C123.863 46.1162 123.699 45.8191 123.59 45.4729C123.48 45.1266 123.426 44.7442 123.426 44.3256ZM124.714 44.3256C124.714 44.5944 124.741 44.8398 124.796 45.062C124.85 45.2842 124.933 45.4754 125.042 45.6356C125.151 45.7958 125.291 45.9199 125.46 46.0077C125.635 46.0956 125.84 46.1395 126.076 46.1395C126.508 46.1395 126.844 46 127.085 45.7209C127.326 45.4419 127.446 44.9768 127.446 44.3256C127.446 44.0673 127.421 43.827 127.372 43.6048C127.323 43.3825 127.241 43.1913 127.126 43.0311C127.016 42.8658 126.874 42.7392 126.699 42.6513C126.53 42.5583 126.322 42.5118 126.076 42.5118C125.649 42.5118 125.315 42.6565 125.075 42.9459C124.834 43.2353 124.714 43.6952 124.714 44.3256Z" fill="#404040"/>
<path d="M131.561 41.6669C131.807 41.6255 132.081 41.5945 132.381 41.5739C132.682 41.548 132.983 41.5351 133.284 41.5351C133.59 41.5351 133.899 41.5584 134.211 41.6049C134.523 41.6462 134.802 41.7341 135.048 41.8684C135.3 41.9976 135.505 42.1811 135.663 42.4188C135.822 42.6513 135.901 42.9614 135.901 43.349C135.901 43.69 135.833 43.982 135.696 44.2249C135.559 44.4626 135.376 44.6564 135.146 44.8062C134.922 44.9561 134.665 45.0672 134.375 45.1395C134.085 45.2067 133.787 45.2403 133.481 45.2403C133.454 45.2403 133.407 45.2403 133.341 45.2403C133.276 45.2403 133.205 45.2403 133.128 45.2403C133.057 45.2352 132.989 45.23 132.923 45.2248C132.857 45.2196 132.808 45.2145 132.775 45.2093V47.0387H131.561V41.6669ZM133.366 42.5428C133.251 42.5428 133.139 42.5454 133.03 42.5505C132.926 42.5557 132.841 42.5661 132.775 42.5816V44.1939C132.797 44.199 132.833 44.2042 132.882 44.2094C132.931 44.2145 132.983 44.2197 133.038 44.2249C133.093 44.2249 133.142 44.2275 133.186 44.2326C133.235 44.2326 133.273 44.2326 133.3 44.2326C133.459 44.2326 133.618 44.2223 133.776 44.2016C133.935 44.1809 134.074 44.137 134.195 44.0698C134.321 44.0027 134.422 43.9122 134.498 43.7985C134.575 43.6797 134.613 43.5221 134.613 43.3257C134.613 43.1603 134.578 43.0286 134.507 42.9304C134.435 42.827 134.34 42.7469 134.219 42.6901C134.104 42.6332 133.97 42.5945 133.817 42.5738C133.67 42.5531 133.519 42.5428 133.366 42.5428Z" fill="#404040"/>
<path d="M143.459 44.3179L143.59 43.1939H143.541L143.147 44.0466L141.818 46.0697H141.44L140.029 44.0388L139.644 43.2017H139.594L139.767 44.3101V47.0387H138.618V41.6126H139.717L141.375 44.1164L141.687 44.7132H141.728L141.998 44.1008L143.582 41.6126H144.673V47.0387H143.459V44.3179Z" fill="#404040"/>
<path d="M150.795 45.8837H148.859L148.391 47.0387H147.177L149.425 41.5739H150.319L152.575 47.0387H151.287L150.795 45.8837ZM149.195 44.9768H150.508L150.065 43.845L149.868 42.9846H149.827L149.63 43.8528L149.195 44.9768Z" fill="#404040"/>
<path d="M160.47 47.9999H159.609L159.477 47.0387H155.08V41.6126H156.294V46.031H158.46V41.6126H159.674V46.031H160.47V47.9999Z" fill="#404040"/>
<path d="M166.781 44.0466L166.847 43.3567H166.806L166.387 44.0543L164.033 47.0387H163.13V41.6126H164.344V44.5349L164.262 45.2558H164.312L164.755 44.5349L167.085 41.6126H167.995V47.0387H166.781V44.0466Z" fill="#404040"/>
<path d="M174.679 44.0466L174.745 43.3567H174.704L174.286 44.0543L171.931 47.0387H171.028V41.6126H172.243V44.5349L172.161 45.2558H172.21L172.653 44.5349L174.983 41.6126H175.894V47.0387H174.679V44.0466Z" fill="#404040"/>
<path d="M11.7184 20.8773H7.95582V34.2602H0V0.431152H7.95582V13.512H11.0158L17.3623 0.431152H26.9954L17.9289 16.0446L28.1287 34.2602H18.7222L11.7184 20.8773Z" fill="#404040"/>
<path d="M43.5644 34.2602C43.2924 33.7491 43.0506 32.9978 42.839 32.0065C41.4337 33.8188 39.4693 34.7249 36.9458 34.7249C34.6339 34.7249 32.6695 34.0124 31.0526 32.5874C29.4358 31.1468 28.6274 29.3423 28.6274 27.1738C28.6274 24.4476 29.6096 22.3875 31.574 20.9935C33.5384 19.5994 36.3943 18.9024 40.1418 18.9024H42.499V17.578C42.499 15.2701 41.5244 14.1161 39.5751 14.1161C37.7618 14.1161 36.8552 15.03 36.8552 16.8578H29.2167C29.2167 14.4259 30.2215 12.451 32.2313 10.933C34.2561 9.41506 36.8325 8.65608 39.9604 8.65608C43.0884 8.65608 45.559 9.4383 47.3723 11.0027C49.1856 12.5672 50.1149 14.7125 50.1602 17.4386V28.5678C50.1904 30.8758 50.538 32.6416 51.2028 33.8652V34.2602H43.5644ZM38.7818 29.1487C39.7338 29.1487 40.5195 28.9396 41.1391 28.5214C41.7737 28.1031 42.227 27.6307 42.499 27.1041V23.0845H40.2778C37.6183 23.0845 36.2885 24.3082 36.2885 26.7556C36.2885 27.4681 36.5227 28.0489 36.9912 28.4981C37.4596 28.9318 38.0565 29.1487 38.7818 29.1487Z" fill="#404040"/>
<path d="M76.3396 34.2602H68.6558V15.1617H61.9013V34.2602H54.2628V9.12076H76.3396V34.2602Z" fill="#404040"/>
<path d="M94.6992 9.12076H102.36V34.2602H94.6992V19.6226L87.9673 34.2602H80.2835V9.12076H87.9673V23.7119L94.6992 9.12076Z" fill="#404040"/>
<path d="M127.928 15.1152H120.199V34.2602H112.515V15.1152H104.899V9.12076H127.928V15.1152Z" fill="#404040"/>
<path d="M144.247 34.2602C143.975 33.7491 143.734 32.9978 143.522 32.0065C142.117 33.8188 140.152 34.7249 137.629 34.7249C135.317 34.7249 133.353 34.0124 131.736 32.5874C130.119 31.1468 129.31 29.3423 129.31 27.1738C129.31 24.4476 130.293 22.3875 132.257 20.9935C134.221 19.5994 137.077 18.9024 140.825 18.9024H143.182V17.578C143.182 15.2701 142.207 14.1161 140.258 14.1161C138.445 14.1161 137.538 15.03 137.538 16.8578H129.9C129.9 14.4259 130.905 12.451 132.914 10.933C134.939 9.41506 137.516 8.65608 140.643 8.65608C143.771 8.65608 146.242 9.4383 148.055 11.0027C149.869 12.5672 150.798 14.7125 150.843 17.4386V28.5678C150.873 30.8758 151.221 32.6416 151.886 33.8652V34.2602H144.247ZM139.465 29.1487C140.417 29.1487 141.203 28.9396 141.822 28.5214C142.457 28.1031 142.91 27.6307 143.182 27.1041V23.0845H140.961C138.301 23.0845 136.972 24.3082 136.972 26.7556C136.972 27.4681 137.206 28.0489 137.674 28.4981C138.143 28.9318 138.74 29.1487 139.465 29.1487Z" fill="#404040"/>
<path d="M177 9.12076V34.2602H169.362V15.1617H164.783L164.375 22.8522C164.088 26.6626 163.249 29.5127 161.859 31.4024C160.469 33.2921 158.406 34.2447 155.671 34.2602H153.269L153.178 28.2658L153.971 28.1728C154.984 28.0489 155.732 27.3596 156.215 26.105C156.714 24.8349 157.031 22.9219 157.167 20.3661L157.643 9.12076H177Z" fill="#404040"/>
<path d="M105.094 1.5376H128.325V5.9626H105.094V1.5376Z" fill="#00B35D"/>
</svg>
