<svg width="34" height="21" viewBox="0 0 34 21" fill="none" xmlns="http://www.w3.org/2000/svg">
<path d="M33.3569 18.918C33.3033 18.83 33.2766 18.742 33.2498 18.6834C32.6603 17.5397 31.5618 16.1321 29.9275 14.4606L29.9007 14.4313L29.8739 14.402L29.8471 14.3727H29.8203C29.0701 13.5809 28.6146 13.0824 28.4003 12.8185C28.052 12.3199 27.9448 11.7921 28.1591 11.2643C28.2931 10.883 28.829 10.0326 29.7399 8.77168C30.2222 8.09721 30.5973 7.56937 30.8652 7.15883C32.8747 4.22638 33.7588 2.34961 33.4909 1.52852L33.3837 1.35258C33.3033 1.23528 33.1426 1.11798 32.8479 1.03001C32.5531 0.942033 32.1781 0.912709 31.7226 0.971358L26.7123 1.00068C26.632 0.971358 26.5248 0.971358 26.364 1.00068C26.2033 1.03001 26.1229 1.05933 26.1229 1.05933L26.0425 1.11798L25.9621 1.17663C25.9086 1.20595 25.8282 1.29393 25.7746 1.3819C25.6942 1.46987 25.6406 1.58717 25.6138 1.70447C25.078 3.25867 24.435 4.66625 23.7383 6.01517C23.3097 6.80694 22.9078 7.4814 22.5595 8.06789C22.2112 8.65438 21.8896 9.06492 21.6485 9.35817C21.4074 9.62209 21.193 9.85668 20.9787 10.0033C20.7911 10.1793 20.6304 10.2379 20.5232 10.2086C20.416 10.1793 20.3089 10.1499 20.2285 10.1206C20.0677 10.0033 19.9338 9.85669 19.8266 9.65141C19.7194 9.44614 19.6659 9.21155 19.6123 8.9183C19.5855 8.62506 19.5587 8.36114 19.5587 8.15586C19.5587 7.95059 19.5587 7.62802 19.5587 7.2468C19.5587 6.86559 19.5855 6.57234 19.5855 6.45504C19.5855 5.95653 19.5855 5.45801 19.6123 4.87152C19.6391 4.31435 19.6391 3.84516 19.6659 3.52259C19.6659 3.20002 19.6926 2.84813 19.6926 2.46691C19.6926 2.08569 19.6659 1.82177 19.6391 1.58717C19.6123 1.3819 19.5319 1.17663 19.4515 0.971358C19.3711 0.766086 19.2372 0.619464 19.1032 0.502165C18.9424 0.384867 18.7549 0.296894 18.5138 0.238245C17.8975 0.0916223 17.1205 0.00364877 16.156 0.00364877C13.959 -0.0256757 12.5926 0.120947 11.9495 0.472841C11.7084 0.619464 11.4941 0.795411 11.2797 1.05933C11.0654 1.35258 11.0386 1.4992 11.1994 1.52852C11.896 1.64582 12.405 1.90974 12.673 2.34961L12.7801 2.58421C12.8605 2.76015 12.9409 3.0534 13.0213 3.46394C13.1016 3.87448 13.1552 4.34368 13.182 4.87152C13.2356 5.8099 13.2356 6.60167 13.182 7.2468C13.1284 7.92127 13.0748 8.41978 13.0213 8.801C12.9677 9.18222 12.8873 9.47547 12.7801 9.71006C12.673 9.94466 12.5926 10.0913 12.5658 10.1206C12.539 10.1793 12.5122 10.2086 12.4854 10.2086C12.3246 10.2672 12.1639 10.2966 12.0031 10.2966C11.8424 10.2966 11.6548 10.2086 11.4137 10.0326C11.1726 9.85669 10.9314 9.62209 10.6903 9.29952C10.4492 8.97695 10.1544 8.56641 9.83293 7.97992C9.51141 7.42275 9.1899 6.74829 8.86839 5.98585L8.60046 5.42868C8.41291 5.07679 8.19857 4.54895 7.87706 3.87448C7.58234 3.20002 7.31441 2.52556 7.07328 1.90974C6.9929 1.64582 6.83214 1.44055 6.64459 1.29393L6.56421 1.23528C6.51063 1.17663 6.40346 1.11798 6.29629 1.05933C6.16232 1.00068 6.02836 0.971358 5.8944 0.942033L1.12529 0.971358C0.643025 0.971358 0.29472 1.08866 0.133964 1.32325L0.0535854 1.44055C0.0267927 1.4992 0 1.6165 0 1.7338C0 1.88042 0.0267927 2.05636 0.107171 2.26164C0.803781 4.05043 1.55398 5.78058 2.38455 7.45208C3.21513 9.12357 3.91174 10.4725 4.52797 11.4989C5.1442 12.5252 5.76043 13.4929 6.37667 14.3727C6.9929 15.2817 7.42158 15.8682 7.63592 16.1028C7.85027 16.3667 8.01102 16.5427 8.11819 16.6893L8.54688 17.1585C8.8148 17.4517 9.24349 17.833 9.77934 18.2435C10.3152 18.6834 10.9314 19.0939 11.5745 19.5044C12.2443 19.915 12.9945 20.2669 13.8786 20.5308C14.7628 20.7947 15.5934 20.8827 16.4239 20.8534H18.4334C18.8353 20.8241 19.1568 20.6774 19.3711 20.4428L19.4515 20.3549C19.5051 20.2669 19.5319 20.1496 19.5855 20.003C19.6391 19.8563 19.6391 19.6804 19.6391 19.4751C19.6391 18.918 19.6659 18.4194 19.7462 17.9796C19.8266 17.5397 19.9338 17.2171 20.041 16.9825C20.1481 16.7479 20.2821 16.572 20.416 16.4254C20.55 16.2788 20.6572 16.1908 20.7108 16.1615C20.7644 16.1321 20.8179 16.1028 20.8447 16.1028C21.1127 16.0148 21.461 16.1028 21.8361 16.3961C22.2112 16.6893 22.5595 17.0705 22.9078 17.5104C23.2293 17.9503 23.6312 18.4488 24.1134 19.0059C24.5689 19.5631 24.9976 19.9736 25.3459 20.2376L25.6942 20.4722C25.9353 20.6188 26.2301 20.7654 26.6052 20.8827C26.9803 21 27.3018 21.0293 27.5697 20.9707L32.0441 20.8827C32.4728 20.8827 32.8211 20.7947 33.0622 20.6481C33.3033 20.5015 33.4641 20.3255 33.4909 20.1203C33.5445 19.915 33.5445 19.7097 33.4909 19.4751C33.4373 19.1819 33.4105 19.0059 33.3569 18.918Z" fill="#404040"/>
</svg>
