<svg width="21" height="21" viewBox="0 0 21 21" fill="none" xmlns="http://www.w3.org/2000/svg">
<path d="M19.8947 0H1.10526C0.552632 0 0 0.552632 0 1.10526V19.8947C0 20.4474 0.552632 21 1.10526 21H11.2368V12.8947H8.47368V9.76316H11.2368V7.36842C11.0526 5.3421 12.5263 3.31579 14.5526 3.13158C15.4173 3.05297 16.681 3.06498 17.6842 3.31579V6.07895H16.0263C14.7368 6.07895 14.5526 6.81579 14.5526 7.73684V9.76316H17.6842L17.1316 12.8947H14.5526V21H19.8947C20.4474 21 21 20.4474 21 19.8947V1.10526C21 0.552632 20.4474 0 19.8947 0Z" fill="#404040"/>
</svg>
