<svg width="26" height="26" viewBox="0 0 26 26" fill="none" xmlns="http://www.w3.org/2000/svg">
<path fill-rule="evenodd" clip-rule="evenodd" d="M0 0H26V26H0V0ZM10.6 7C8.61177 7 7 8.61177 7 10.6V15.4C7 17.3882 8.61177 19 10.6 19H15.4C17.3882 19 19 17.3882 19 15.4V10.6C19 8.61177 17.3882 7 15.4 7H10.6ZM17.4 9.4C17.4 9.84183 17.0418 10.2 16.6 10.2C16.1582 10.2 15.8 9.84183 15.8 9.4C15.8 8.95817 16.1582 8.6 16.6 8.6C17.0418 8.6 17.4 8.95817 17.4 9.4ZM16.2 13C16.2 14.7673 14.7673 16.2 13 16.2C11.2327 16.2 9.8 14.7673 9.8 13C9.8 11.2327 11.2327 9.8 13 9.8C14.7673 9.8 16.2 11.2327 16.2 13ZM15 13C15 14.1046 14.1046 15 13 15C11.8954 15 11 14.1046 11 13C11 11.8954 11.8954 11 13 11C14.1046 11 15 11.8954 15 13Z" fill="#404040"/>
</svg>
