<svg width="26" height="26" viewBox="0 0 26 26" fill="none" xmlns="http://www.w3.org/2000/svg">
<path d="M26 0H0V26H26V0Z" fill="#404040"/>
<path fill-rule="evenodd" clip-rule="evenodd" d="M18.3112 7.0442L16.4541 18.1868C16.4299 18.3271 16.3525 18.4359 16.2219 18.5133C16.1542 18.552 16.0793 18.5713 15.997 18.5713C15.9438 18.5713 15.8858 18.5592 15.8229 18.535L12.5367 17.193L10.7812 19.333C10.6941 19.4443 10.5756 19.4999 10.4257 19.4999C10.3629 19.4999 10.3097 19.4902 10.2661 19.4709C10.1742 19.437 10.1005 19.3802 10.0449 19.3004C9.98925 19.2206 9.96145 19.1323 9.96145 19.0356V16.5038L16.2292 8.82151L8.47431 15.5318L5.60885 14.3566C5.42991 14.2888 5.33319 14.1559 5.31868 13.9576C5.309 13.7641 5.38638 13.6215 5.55082 13.5296L17.622 6.56541C17.6946 6.52188 17.7719 6.50012 17.8542 6.50012C17.9509 6.50012 18.0379 6.52672 18.1153 6.57992C18.2749 6.69599 18.3402 6.85075 18.3112 7.0442Z" fill="white"/>
</svg>
