<svg width="26" height="26" viewBox="0 0 26 26" fill="none" xmlns="http://www.w3.org/2000/svg">
<path d="M26 0H0V26H26V0Z" fill="#404040"/>
<path fill-rule="evenodd" clip-rule="evenodd" d="M18.0378 9.95427C18.5637 9.62242 18.9672 9.09621 19.1566 8.46936C18.6642 8.77741 18.1201 9.00018 17.5396 9.12079C17.0764 8.59842 16.4143 8.27271 15.6816 8.27271C14.2759 8.27271 13.1367 9.47492 13.1367 10.9575C13.1367 11.168 13.1578 11.3731 13.2015 11.569C11.0864 11.4569 9.21084 10.3891 7.95441 8.76358C7.73518 9.1615 7.6099 9.62242 7.6099 10.1141C7.6099 11.0451 8.0593 11.8671 8.7425 12.3495C8.32515 12.3357 7.93256 12.2135 7.58878 12.0138V12.0468C7.58878 13.3481 8.46572 14.4336 9.63183 14.6794C9.41769 14.7424 9.19335 14.7739 8.96028 14.7739C8.7964 14.7739 8.63616 14.7578 8.48175 14.7263C8.80514 15.7925 9.74545 16.5699 10.8598 16.5907C9.988 17.3112 8.89036 17.7399 7.69803 17.7399C7.49263 17.7399 7.28942 17.7284 7.09058 17.703C8.21735 18.4643 9.55535 18.9091 10.9931 18.9091C15.6765 18.9091 18.236 14.8177 18.236 11.2694C18.236 11.1527 18.2345 11.0367 18.2294 10.9222C18.7269 10.5435 19.1595 10.0703 19.4997 9.53177C19.043 9.74533 18.5521 9.88975 18.0378 9.95427Z" fill="white"/>
</svg>
