<svg width="26" height="26" viewBox="0 0 26 26" fill="none" xmlns="http://www.w3.org/2000/svg">
<path d="M26 0H0V26H26V0Z" fill="#404040"/>
<path d="M20.6847 17.3222C20.6591 17.2801 20.6463 17.238 20.6335 17.21C20.3515 16.6629 19.826 15.9896 19.0442 15.19L19.0314 15.176L19.0186 15.162L19.0058 15.1479H18.993C18.6341 14.7692 18.4162 14.5307 18.3137 14.4045C18.1471 14.166 18.0958 13.9135 18.1983 13.661C18.2624 13.4787 18.5187 13.0719 18.9545 12.4687C19.1852 12.146 19.3646 11.8936 19.4928 11.6972C20.454 10.2944 20.877 9.39665 20.7488 9.00388L20.6975 8.91972C20.6591 8.86361 20.5822 8.8075 20.4412 8.76541C20.3002 8.72333 20.1208 8.7093 19.9029 8.73736L17.5062 8.75139C17.4678 8.73736 17.4165 8.73736 17.3396 8.75139C17.2627 8.76541 17.2243 8.77944 17.2243 8.77944L17.1858 8.8075L17.1474 8.83555C17.1218 8.84958 17.0833 8.89166 17.0577 8.93374C17.0192 8.97583 16.9936 9.03194 16.9808 9.08805C16.7244 9.83151 16.4169 10.5048 16.0836 11.1501C15.8786 11.5288 15.6863 11.8515 15.5197 12.132C15.3531 12.4126 15.1993 12.609 15.0839 12.7492C14.9686 12.8755 14.8661 12.9877 14.7635 13.0578C14.6738 13.142 14.5969 13.1701 14.5457 13.156C14.4944 13.142 14.4431 13.128 14.4047 13.1139C14.3278 13.0578 14.2637 12.9877 14.2124 12.8895C14.1612 12.7913 14.1355 12.6791 14.1099 12.5388C14.0971 12.3985 14.0843 12.2723 14.0843 12.1741C14.0843 12.0759 14.0843 11.9216 14.0843 11.7392C14.0843 11.5569 14.0971 11.4166 14.0971 11.3605C14.0971 11.122 14.0971 10.8836 14.1099 10.603C14.1227 10.3365 14.1227 10.1121 14.1355 9.95775C14.1355 9.80345 14.1483 9.63512 14.1483 9.45276C14.1483 9.2704 14.1355 9.14416 14.1227 9.03194C14.1099 8.93374 14.0714 8.83555 14.033 8.73736C13.9945 8.63917 13.9305 8.56903 13.8664 8.51292C13.7895 8.45681 13.6998 8.41473 13.5844 8.38667C13.2896 8.31653 12.918 8.27445 12.4566 8.27445C11.4056 8.26042 10.752 8.33056 10.4444 8.49889C10.3291 8.56903 10.2265 8.65319 10.124 8.77944C10.0215 8.91972 10.0086 8.98985 10.0855 9.00388C10.4188 9.05999 10.6623 9.18624 10.7904 9.39665L10.8417 9.50887C10.8802 9.59304 10.9186 9.73331 10.9571 9.9297C10.9955 10.1261 11.0211 10.3505 11.034 10.603C11.0596 11.0519 11.0596 11.4306 11.034 11.7392C11.0083 12.0619 10.9827 12.3004 10.9571 12.4827C10.9314 12.6651 10.893 12.8053 10.8417 12.9176C10.7904 13.0298 10.752 13.0999 10.7392 13.1139C10.7264 13.142 10.7135 13.156 10.7007 13.156C10.6238 13.1841 10.5469 13.1981 10.47 13.1981C10.3931 13.1981 10.3034 13.156 10.1881 13.0719C10.0727 12.9877 9.95737 12.8755 9.84203 12.7212C9.72668 12.5669 9.5857 12.3705 9.4319 12.0899C9.2781 11.8234 9.12431 11.5008 8.97051 11.1361L8.84234 10.8695C8.75263 10.7012 8.6501 10.4487 8.4963 10.1261C8.35532 9.80345 8.22716 9.48082 8.11181 9.18624C8.07336 9.05999 7.99646 8.9618 7.90675 8.89166L7.8683 8.86361C7.84266 8.83555 7.7914 8.8075 7.74013 8.77944C7.67605 8.75139 7.61197 8.73736 7.54789 8.72333L5.26656 8.73736C5.03587 8.73736 4.86925 8.79347 4.79235 8.90569L4.7539 8.9618C4.74109 8.98985 4.72827 9.04596 4.72827 9.10207C4.72827 9.17221 4.74109 9.25638 4.77954 9.35457C5.11276 10.2102 5.47162 11.0379 5.86893 11.8374C6.26624 12.637 6.59947 13.2823 6.89425 13.7732C7.18903 14.2642 7.4838 14.7271 7.77858 15.1479C8.07336 15.5828 8.27842 15.8633 8.38095 15.9756C8.48348 16.1018 8.56038 16.186 8.61165 16.2561L8.81671 16.4806C8.94488 16.6208 9.14994 16.8032 9.40627 16.9996C9.6626 17.21 9.95737 17.4064 10.265 17.6028C10.5854 17.7991 10.9442 17.9675 11.3672 18.0937C11.7901 18.22 12.1874 18.262 12.5847 18.248H13.546C13.7382 18.234 13.892 18.1639 13.9945 18.0516L14.033 18.0096C14.0586 17.9675 14.0714 17.9114 14.0971 17.8412C14.1227 17.7711 14.1227 17.6869 14.1227 17.5887C14.1227 17.3222 14.1355 17.0837 14.174 16.8733C14.2124 16.6629 14.2637 16.5086 14.315 16.3964C14.3662 16.2842 14.4303 16.2 14.4944 16.1299C14.5585 16.0597 14.6097 16.0176 14.6354 16.0036C14.661 15.9896 14.6866 15.9756 14.6995 15.9756C14.8276 15.9335 14.9942 15.9756 15.1737 16.1158C15.3531 16.2561 15.5197 16.4385 15.6863 16.6489C15.8401 16.8593 16.0324 17.0978 16.2631 17.3643C16.4809 17.6308 16.686 17.8272 16.8526 17.9534L17.0192 18.0657C17.1346 18.1358 17.2756 18.2059 17.455 18.262C17.6344 18.3182 17.7882 18.3322 17.9164 18.3041L20.0567 18.262C20.2618 18.262 20.4284 18.22 20.5437 18.1498C20.6591 18.0797 20.736 17.9955 20.7488 17.8973C20.7744 17.7991 20.7744 17.7009 20.7488 17.5887C20.7232 17.4485 20.7104 17.3643 20.6847 17.3222Z" fill="white"/>
</svg>
