<svg width="26" height="26" viewBox="0 0 26 26" fill="none" xmlns="http://www.w3.org/2000/svg">
<path d="M26 0H0V26H26V0Z" fill="#404040"/>
<path fill-rule="evenodd" clip-rule="evenodd" d="M16.0333 14.3C15.1667 15.1667 15.1667 16.0333 14.3 16.0333C13.4333 16.0333 12.5667 15.1667 11.7 14.3C10.8333 13.4333 9.96667 12.5667 9.96667 11.7C9.96667 10.8333 10.8333 10.8333 11.7 9.96667C12.5667 9.1 9.96667 6.5 9.1 6.5C8.23333 6.5 6.5 9.1 6.5 9.1C6.5 10.8333 8.281 14.3477 9.96667 16.0333C11.6515 17.719 15.1667 19.5 16.9 19.5C16.9 19.5 19.5 17.7667 19.5 16.9C19.5 16.0333 16.9 13.4333 16.0333 14.3Z" fill="white"/>
</svg>
