<svg width="26" height="26" viewBox="0 0 26 26" fill="none" xmlns="http://www.w3.org/2000/svg">
<path fill-rule="evenodd" clip-rule="evenodd" d="M0 0H26V26H0V0ZM19.7116 9.53377C19.5502 8.9341 19.0774 8.46128 18.4777 8.29983C17.3822 8 13 8 13 8C13 8 8.61778 8 7.52223 8.2883C6.9341 8.44975 6.44975 8.9341 6.2883 9.53377C6 10.6293 6 12.9011 6 12.9011C6 12.9011 6 15.1845 6.2883 16.2685C6.44975 16.8682 6.92257 17.341 7.52223 17.5024C8.62931 17.8023 13 17.8023 13 17.8023C13 17.8023 17.3822 17.8023 18.4777 17.514C19.0774 17.3525 19.5502 16.8797 19.7116 16.28C19.9999 15.1845 19.9999 12.9127 19.9999 12.9127C19.9999 12.9127 20.0115 10.6293 19.7116 9.53377ZM11.25 15.9587L16.64 12.8544L11.25 9.75V15.9587Z" fill="#404040"/>
</svg>
