<svg width="31" height="21" viewBox="0 0 31 21" fill="none" xmlns="http://www.w3.org/2000/svg">
<path fill-rule="evenodd" clip-rule="evenodd" d="M27.2694 0.642353C28.5541 0.988235 29.567 2.00118 29.9129 3.28588C30.5552 5.63294 30.5305 10.5247 30.5305 10.5247C30.5305 10.5247 30.5305 15.3918 29.9129 17.7388C29.567 19.0235 28.5541 20.0365 27.2694 20.3824C24.9223 21 15.5341 21 15.5341 21C15.5341 21 6.17054 21 3.79877 20.3576C2.51407 20.0118 1.50113 18.9988 1.15524 17.7141C0.537598 15.3918 0.537598 10.5 0.537598 10.5C0.537598 10.5 0.537598 5.63294 1.15524 3.28588C1.50113 2.00118 2.53877 0.963529 3.79877 0.617647C6.14583 0 15.5341 0 15.5341 0C15.5341 0 24.9223 0 27.2694 0.642353ZM20.3517 10.4999L12.5447 14.9964V6.00346L20.3517 10.4999Z" fill="#404040"/>
</svg>
